<svg width="27" height="16" viewBox="0 0 27 16" fill="none" xmlns="http://www.w3.org/2000/svg">
<path d="M17.854 0.556V16H14.092V6.738L10.638 16H7.602L4.126 6.716V16H0.364V0.556H4.808L9.142 11.248L13.432 0.556H17.854ZM23.0233 6.056H26.8513V8.256H20.0533V6.144L22.7373 4.516C23.5586 4.00267 23.9693 3.47467 23.9693 2.932C23.9693 2.74133 23.918 2.59467 23.8153 2.492C23.7126 2.37467 23.5806 2.316 23.4193 2.316C23.0233 2.316 22.8033 2.58 22.7593 3.108H19.9433C19.9873 2.25733 20.3393 1.57533 20.9993 1.062C21.674 0.548666 22.576 0.291999 23.7053 0.291999C24.7613 0.291999 25.568 0.533999 26.1253 1.018C26.6826 1.502 26.9613 2.074 26.9613 2.734C26.9613 3.262 26.7633 3.724 26.3673 4.12C25.9713 4.516 25.304 4.94133 24.3653 5.396L23.0233 6.056Z" fill="black" fill-opacity="0.5"/>
</svg>
